<svg xmlns="http://www.w3.org/2000/svg" width="128" height="128"><path fill="#f9d16e" d="M84.333 56.452h21V109h-21z"/><path fill="#ffad5a" d="M44.706 37.667h39.627V109H44.706z"/><g fill="#fff8e3"><path d="M52.557 86.5H64.52V109H52.557zM64.52 86.5h11.963V109H64.52z"/></g><path fill="#fff8e3" d="M91.648 79.541h6.37v6.37h-6.37zM91.648 64.631h6.37v6.37h-6.37zM91.648 94.451h6.37v6.37h-6.37z"/><path d="M84.333 49.153h23.16a.167.167 0 0 1 .167.167v7.133H84.333v-7.3z" fill="#f7963e"/><path fill="#f9d16e" d="M44.706 109h-21V56.452h21z"/><path fill="#fff8e3" d="M37.391 85.911h-6.37v-6.37h6.37zM37.391 71.001h-6.37v-6.37h6.37zM37.391 100.821h-6.37v-6.37h6.37z"/><path d="M44.706 56.452H21.38v-7.133a.167.167 0 0 1 .167-.167h23.159v7.3z" fill="#f7963e"/><path fill="#fff8e3" d="M53.363 58.594h6.37v6.37h-6.37zM69.307 58.594h6.37v6.37h-6.37zM53.363 45.783h6.37v6.37h-6.37zM69.307 45.783h6.37v6.37h-6.37zM53.363 71.405h6.37v6.37h-6.37zM69.307 71.405h6.37v6.37h-6.37z"/><rect x="42.252" y="19" width="44.536" height="13.5" rx="2.835" fill="#4f9da6"/><g fill="#fff8e3"><path d="M52.568 22.31v6.88h-1.712v-2.744h-2.815v2.744h-1.712v-6.88h1.712v2.6h2.815v-2.6zM54.3 25.745A3.7 3.7 0 1 1 58 29.31a3.672 3.672 0 0 1-3.7-3.565zm5.638 0a1.944 1.944 0 1 0-1.943 2.013 2 2 0 0 0 1.938-2.013zM65.126 23.842h-2.092V22.31h5.888v1.532h-2.083v5.348h-1.713zM72.251 23.842v1.072h3.366v1.532h-3.366v1.212h3.706v1.532h-5.418v-6.88h5.418v1.532zM82.711 27.658v1.532h-5.018v-6.88h1.7v5.348z"/></g><path d="M52.562 39.167a1.5 1.5 0 0 1-1.5-1.5V32.5a1.5 1.5 0 0 1 3 0v5.167a1.5 1.5 0 0 1-1.5 1.5zM76.477 39.167a1.5 1.5 0 0 1-1.5-1.5V32.5a1.5 1.5 0 0 1 3 0v5.167a1.5 1.5 0 0 1-1.5 1.5z" fill="#4f9da6"/><path d="M109 110.75H19a1.75 1.75 0 0 1 0-3.5h90a1.75 1.75 0 0 1 0 3.5z" fill="#2d1f5e"/></svg>